<svg fill="#000000" xmlns:dc="http://purl.org/dc/elements/1.1/" xmlns:cc="http://creativecommons.org/ns#" xmlns:rdf="http://www.w3.org/1999/02/22-rdf-syntax-ns#" xmlns:svg="http://www.w3.org/2000/svg" xmlns="http://www.w3.org/2000/svg" xmlns:sodipodi="http://sodipodi.sourceforge.net/DTD/sodipodi-0.dtd" xmlns:inkscape="http://www.inkscape.org/namespaces/inkscape" version="1.1" x="0px" y="0px" viewBox="0 0 100 100"><g transform="translate(0,-952.36215)"><path style="font-size:medium;font-style:normal;font-variant:normal;font-weight:normal;font-stretch:normal;text-indent:0;text-align:start;text-decoration:none;line-height:normal;letter-spacing:normal;word-spacing:normal;text-transform:none;direction:ltr;block-progression:tb;writing-mode:lr-tb;text-anchor:start;baseline-shift:baseline;opacity:1;color:#000000;fill:#000000;fill-opacity:1;stroke:none;stroke-width:3.99999905000000000;marker:none;visibility:visible;display:inline;overflow:visible;enable-background:accumulate;font-family:Sans;-inkscape-font-specification:Sans" d="M 50 4 C 40.94389 4 32.744509 5.4827 26.625 7.96875 C 23.565245 9.21178 21.00682 10.69254 19.125 12.5 C 17.24318 14.30746 16 16.53992 16 19 A 2.0001995 2.0001995 0 0 0 16 19.1875 L 22 84.1875 L 22.03125 84.1875 C 22.09804 86.1913 23.152983 87.9796 24.6875 89.375 C 26.271495 90.8153 28.394648 91.9715 30.90625 92.9375 C 35.929455 94.8694 42.612439 96 50 96 C 57.387561 96 64.070545 94.8694 69.09375 92.9375 C 71.605352 91.9715 73.728505 90.8153 75.3125 89.375 C 76.847017 87.9796 77.901957 86.1913 77.96875 84.1875 L 78 84.1875 L 84 19.1875 A 2.0001995 2.0001995 0 0 0 84 19 C 84 16.53992 82.75682 14.30746 80.875 12.5 C 78.99318 10.69254 76.434755 9.21178 73.375 7.96875 C 67.255491 5.4827 59.05611 4 50 4 z M 50 8 C 58.617002 8 66.412787 9.43723 71.875 11.65625 C 74.606106 12.76576 76.736994 14.07186 78.09375 15.375 C 79.26096 16.496085 79.832342 17.54468 79.96875 18.53125 A 2.0012813 2.0012813 0 0 0 79.9375 18.59375 C 79.646658 20.199269 77.874218 22.180528 74.75 23.9375 L 66.40625 15.59375 A 2.0001995 2.0001995 0 0 0 64.46875 15.0625 L 54.5625 17.75 L 50.40625 13.59375 A 2.0001995 2.0001995 0 0 0 48.78125 13 A 2.0001995 2.0001995 0 0 0 47.65625 13.5 L 39.5625 20.6875 L 35.75 19.15625 A 2.0001995 2.0001995 0 0 0 33.9375 19.3125 L 25.9375 24.3125 C 22.3932 22.47049 20.373526 20.310686 20.0625 18.59375 A 2.0001995 2.0001995 0 0 0 20.03125 18.46875 C 20.181656 17.499567 20.761815 16.47421 21.90625 15.375 C 23.263006 14.07186 25.393894 12.76576 28.125 11.65625 C 33.587213 9.43723 41.382998 8 50 8 z M 48.9375 17.75 L 52.59375 21.40625 A 2.0001995 2.0001995 0 0 0 54.53125 21.9375 L 64.4375 19.25 L 70.90625 25.71875 C 65.508968 27.725319 58.117932 29 50 29 C 42.544917 29 35.717085 27.918934 30.46875 26.1875 L 35.1875 23.21875 L 39.25 24.84375 A 2.0001995 2.0001995 0 0 0 41.34375 24.5 L 48.9375 17.75 z M 20.625 25.8125 C 22.495682 27.20139 24.835595 28.376844 27.46875 29.375 C 28.58731 29.799015 29.791867 30.174635 31.03125 30.53125 L 34.875 90.0625 C 33.977433 89.80202 33.126649 89.519867 32.34375 89.21875 C 30.150278 88.37515 28.422348 87.35865 27.375 86.40625 C 26.327652 85.45385 26 84.6781 26 84 A 2.0001995 2.0001995 0 0 0 26 83.8125 L 20.625 25.8125 z M 79.375 25.8125 L 74 83.8125 A 2.0001995 2.0001995 0 0 0 74 84 C 74 84.6781 73.672348 85.45385 72.625 86.40625 C 71.577652 87.35865 69.849722 88.37515 67.65625 89.21875 C 66.873351 89.519867 66.022567 89.80202 65.125 90.0625 L 68.96875 30.53125 C 70.208133 30.174635 71.41269 29.799015 72.53125 29.375 C 75.164405 28.376844 77.504318 27.20139 79.375 25.8125 z M 35.125 31.5625 C 39.055597 32.37599 43.397634 32.857319 48 32.96875 L 48 91.9375 C 44.749549 91.839337 41.695307 91.549098 38.9375 91.03125 L 35.125 31.5625 z M 64.875 31.5625 L 61.0625 91.03125 C 58.304693 91.549098 55.250451 91.839337 52 91.9375 L 52 32.96875 C 56.602366 32.857319 60.944403 32.37599 64.875 31.5625 z " transform="translate(0,952.36215)"/></g></svg>